<svg xmlns="http://www.w3.org/2000/svg" viewBox="0 0 512 64" width="512" height="64"><g transform="translate(0,0)"><path d="M12,30 C8,31 7,33 6,36 C6,38 7,40 9,41 C11,41 12,40 13,38 Z M10,28 C14,22 26,20 34,22 L46,26 C48,27 49,29 49,31 C49,35 46,38 41,39 L30,41 L18,39 C13,38 10,35 10,31 Z M46,26 L54,22 C57,21 60,23 60,26 C60,28 58,31 55,31 L50,30 Z M18,39 l-11,14 M24,39 l10,14 M36,39 l9,14 M42,39 l-6,14" fill="#111" stroke="#000" stroke-width="0.8"/></g><g transform="translate(64,0)"><path d="M12,30 C8,31 7,33 6,36 C6,38 7,40 9,41 C11,41 12,40 13,38 Z M10,28 C14,22 26,20 34,22 L46,26 C48,27 49,29 49,31 C49,35 46,38 41,39 L30,41 L18,39 C13,38 10,35 10,31 Z M46,26 L54,22 C57,21 60,23 60,26 C60,28 58,31 55,31 L50,30 Z M18,39 l-4,14 M24,39 l3,14 M36,39 l11,14 M42,39 l-8,14" fill="#111" stroke="#000" stroke-width="0.8"/></g><g transform="translate(128,0)"><path d="M12,30 C8,31 7,33 6,36 C6,38 7,40 9,41 C11,41 12,40 13,38 Z M10,28 C14,22 26,20 34,22 L46,26 C48,27 49,29 49,31 C49,35 46,38 41,39 L30,41 L18,39 C13,38 10,35 10,31 Z M46,26 L54,22 C57,21 60,23 60,26 C60,28 58,31 55,31 L50,30 Z M18,39 l2,14 M24,39 l-3,14 M36,39 l9,14 M42,39 l-6,14" fill="#111" stroke="#000" stroke-width="0.8"/></g><g transform="translate(192,0)"><path d="M12,30 C8,31 7,33 6,36 C6,38 7,40 9,41 C11,41 12,40 13,38 Z M10,28 C14,22 26,20 34,22 L46,26 C48,27 49,29 49,31 C49,35 46,38 41,39 L30,41 L18,39 C13,38 10,35 10,31 Z M46,26 L54,22 C57,21 60,23 60,26 C60,28 58,31 55,31 L50,30 Z M18,39 l6,14 M24,39 l-7,14 M36,39 l5,14 M42,39 l-2,14" fill="#111" stroke="#000" stroke-width="0.8"/></g><g transform="translate(256,0)"><path d="M12,30 C8,31 7,33 6,36 C6,38 7,40 9,41 C11,41 12,40 13,38 Z M10,28 C14,22 26,20 34,22 L46,26 C48,27 49,29 49,31 C49,35 46,38 41,39 L30,41 L18,39 C13,38 10,35 10,31 Z M46,26 L54,22 C57,21 60,23 60,26 C60,28 58,31 55,31 L50,30 Z M18,39 l2,14 M24,39 l-3,14 M36,39 l1,14 M42,39 l2,14" fill="#111" stroke="#000" stroke-width="0.8"/></g><g transform="translate(320,0)"><path d="M12,30 C8,31 7,33 6,36 C6,38 7,40 9,41 C11,41 12,40 13,38 Z M10,28 C14,22 26,20 34,22 L46,26 C48,27 49,29 49,31 C49,35 46,38 41,39 L30,41 L18,39 C13,38 10,35 10,31 Z M46,26 L54,22 C57,21 60,23 60,26 C60,28 58,31 55,31 L50,30 Z M18,39 l-6,14 M24,39 l5,14 M36,39 l-1,14 M42,39 l4,14" fill="#111" stroke="#000" stroke-width="0.8"/></g><g transform="translate(384,0)"><path d="M12,30 C8,31 7,33 6,36 C6,38 7,40 9,41 C11,41 12,40 13,38 Z M10,28 C14,22 26,20 34,22 L46,26 C48,27 49,29 49,31 C49,35 46,38 41,39 L30,41 L18,39 C13,38 10,35 10,31 Z M46,26 L54,22 C57,21 60,23 60,26 C60,28 58,31 55,31 L50,30 Z M18,39 l-12,14 M24,39 l11,14 M36,39 l1,14 M42,39 l2,14" fill="#111" stroke="#000" stroke-width="0.8"/></g><g transform="translate(448,0)"><path d="M12,30 C8,31 7,33 6,36 C6,38 7,40 9,41 C11,41 12,40 13,38 Z M10,28 C14,22 26,20 34,22 L46,26 C48,27 49,29 49,31 C49,35 46,38 41,39 L30,41 L18,39 C13,38 10,35 10,31 Z M46,26 L54,22 C57,21 60,23 60,26 C60,28 58,31 55,31 L50,30 Z M18,39 l-8,14 M24,39 l7,14 M36,39 l5,14 M42,39 l-2,14" fill="#111" stroke="#000" stroke-width="0.8"/></g></svg>